<svg width="100" height="100" viewBox="0 0 100 100" fill="none" xmlns="http://www.w3.org/2000/svg">
<path d="M67 50C67 59.3888 59.3888 67 50 67C40.6112 67 33 59.3888 33 50C33 40.6112 40.6112 33 50 33C59.3888 33 67 40.6112 67 50Z" fill="#F4CC50"/>
<path d="M48 12C48 10.8954 48.8954 10 50 10V10C51.1046 10 52 10.8954 52 12V24C52 25.1046 51.1046 26 50 26V26C48.8954 26 48 25.1046 48 24V12Z" fill="#F4CC50"/>
<path d="M88 48C89.1046 48 90 48.8954 90 50V50C90 51.1046 89.1046 52 88 52L76 52C74.8954 52 74 51.1046 74 50V50C74 48.8954 74.8954 48 76 48L88 48Z" fill="#F4CC50"/>
<path d="M24 48C25.1046 48 26 48.8954 26 50V50C26 51.1046 25.1046 52 24 52L12 52C10.8954 52 10 51.1046 10 50V50C10 48.8954 10.8954 48 12 48L24 48Z" fill="#F4CC50"/>
<path d="M48 76C48 74.8954 48.8954 74 50 74V74C51.1046 74 52 74.8954 52 76V88C52 89.1046 51.1046 90 50 90V90C48.8954 90 48 89.1046 48 88V76Z" fill="#F4CC50"/>
<path d="M78.7279 24.2426C79.509 23.4615 79.509 22.1952 78.7279 21.4142V21.4142C77.9469 20.6331 76.6806 20.6331 75.8995 21.4142L67.4142 29.8994C66.6332 30.6805 66.6332 31.9468 67.4142 32.7279V32.7279C68.1953 33.5089 69.4616 33.5089 70.2427 32.7279L78.7279 24.2426Z" fill="#F4CC50"/>
<path d="M77.7279 74.8995C78.509 75.6806 78.509 76.9469 77.7279 77.7279V77.7279C76.9469 78.509 75.6806 78.509 74.8995 77.7279L66.4142 69.2427C65.6332 68.4616 65.6332 67.1953 66.4142 66.4142V66.4142C67.1953 65.6332 68.4616 65.6332 69.2427 66.4142L77.7279 74.8995Z" fill="#F4CC50"/>
<path d="M21.4142 24.2426C20.6332 23.4615 20.6332 22.1952 21.4142 21.4142V21.4142C22.1953 20.6331 23.4616 20.6331 24.2426 21.4142L32.7279 29.8994C33.509 30.6805 33.509 31.9468 32.7279 32.7279V32.7279C31.9469 33.5089 30.6805 33.5089 29.8995 32.7279L21.4142 24.2426Z" fill="#F4CC50"/>
<path d="M21.4142 75.8995C20.6332 76.6806 20.6332 77.9469 21.4142 78.7279V78.7279C22.1953 79.509 23.4616 79.509 24.2426 78.7279L32.7279 70.2427C33.509 69.4616 33.509 68.1953 32.7279 67.4142V67.4142C31.9469 66.6332 30.6805 66.6332 29.8995 67.4142L21.4142 75.8995Z" fill="#F4CC50"/>
</svg>
