<svg width="100" height="100" viewBox="0 0 100 100" fill="none" xmlns="http://www.w3.org/2000/svg">
<path d="M45.4795 39.898C45.4795 45.7421 40.742 50.4797 34.8979 50.4797C29.0538 50.4797 24.3163 45.7421 24.3163 39.898C24.3163 34.054 29.0538 29.3164 34.8979 29.3164C40.742 29.3164 45.4795 34.054 45.4795 39.898Z" fill="#FEDB7D"/>
<path d="M33.653 16.2449C33.653 15.5574 34.2104 15 34.8979 15V15C35.5855 15 36.1428 15.5574 36.1428 16.2449V23.7143C36.1428 24.4018 35.5855 24.9592 34.8979 24.9592V24.9592C34.2104 24.9592 33.653 24.4018 33.653 23.7143V16.2449Z" fill="#FEDB7D"/>
<path d="M58.551 38.6531C59.2385 38.6531 59.7959 39.2104 59.7959 39.898V39.898C59.7959 40.5855 59.2385 41.1429 58.551 41.1429L51.0816 41.1429C50.3941 41.1429 49.8367 40.5855 49.8367 39.898V39.898C49.8367 39.2104 50.3941 38.6531 51.0816 38.6531L58.551 38.6531Z" fill="#FEDB7D"/>
<path d="M18.7142 38.6531C19.4017 38.6531 19.9591 39.2104 19.9591 39.898V39.898C19.9591 40.5855 19.4017 41.1429 18.7142 41.1429L11.2448 41.1429C10.5573 41.1429 9.99992 40.5855 9.99992 39.898V39.898C9.99992 39.2104 10.5573 38.6531 11.2448 38.6531L18.7142 38.6531Z" fill="#FEDB7D"/>
<path d="M33.653 56.0814C33.653 55.3938 34.2104 54.8365 34.8979 54.8365V54.8365C35.5855 54.8365 36.1428 55.3938 36.1428 56.0814V63.5508C36.1428 64.2383 35.5855 64.7957 34.8979 64.7957V64.7957C34.2104 64.7957 33.653 64.2383 33.653 63.5508V56.0814Z" fill="#FEDB7D"/>
<path d="M52.7796 23.8653C53.2657 23.3791 53.2657 22.5909 52.7796 22.1047V22.1047C52.2934 21.6185 51.5052 21.6185 51.019 22.1047L45.7374 27.3864C45.2512 27.8725 45.2512 28.6608 45.7374 29.1469V29.1469C46.2235 29.6331 47.0118 29.6331 47.4979 29.1469L52.7796 23.8653Z" fill="#FEDB7D"/>
<path d="M52.1572 55.3968C52.6434 55.8829 52.6434 56.6712 52.1572 57.1573V57.1573C51.671 57.6435 50.8828 57.6435 50.3966 57.1573L45.115 51.8757C44.6288 51.3895 44.6288 50.6013 45.115 50.1151V50.1151C45.6012 49.6289 46.3894 49.6289 46.8755 50.1151L52.1572 55.3968Z" fill="#FEDB7D"/>
<path d="M17.1048 23.8653C16.6186 23.3791 16.6186 22.5909 17.1048 22.1047V22.1047C17.5909 21.6185 18.3792 21.6185 18.8653 22.1047L24.147 27.3864C24.6331 27.8725 24.6331 28.6608 24.147 29.1469V29.1469C23.6608 29.6331 22.8726 29.6331 22.3864 29.1469L17.1048 23.8653Z" fill="#FEDB7D"/>
<path d="M17.1048 56.019C16.6186 56.5052 16.6186 57.2934 17.1048 57.7796V57.7796C17.5909 58.2657 18.3792 58.2657 18.8653 57.7796L24.147 52.4979C24.6331 52.0117 24.6331 51.2235 24.147 50.7374V50.7374C23.6608 50.2512 22.8726 50.2512 22.3864 50.7374L17.1048 56.019Z" fill="#FEDB7D"/>
<path d="M26.3334 64.6528C26.3334 60.1443 29.9883 56.4895 34.4967 56.4895H81.5067C86.0151 56.4895 89.6699 60.1443 89.6699 64.6528V64.6528C89.6699 69.1612 86.0151 72.816 81.5067 72.816H34.4967C29.9883 72.816 26.3334 69.1612 26.3334 64.6528V64.6528Z" fill="white"/>
<path d="M46.3345 61.3877C46.3345 67.6995 41.1109 72.8162 34.6673 72.8162C28.2236 72.8162 23 67.6995 23 61.3877C23 55.0759 28.2236 49.9591 34.6673 49.9591C41.1109 49.9591 46.3345 55.0759 46.3345 61.3877Z" fill="white"/>
<path d="M63.0019 47.5102C63.0019 56.0763 55.9128 63.0204 47.1678 63.0204C38.4229 63.0204 31.3337 56.0763 31.3337 47.5102C31.3337 38.9442 38.4229 32 47.1678 32C55.9128 32 63.0019 38.9442 63.0019 47.5102Z" fill="white"/>
<path d="M81.3362 54.0408C81.3362 60.8035 75.7395 66.2857 68.8356 66.2857C61.9317 66.2857 56.335 60.8035 56.335 54.0408C56.335 47.2781 61.9317 41.7959 68.8356 41.7959C75.7395 41.7959 81.3362 47.2781 81.3362 54.0408Z" fill="white"/>
</svg>
