<svg width="100" height="100" viewBox="0 0 100 100" fill="none" xmlns="http://www.w3.org/2000/svg">
<path fill-rule="evenodd" clip-rule="evenodd" d="M82 29.7797C80.9017 29.3862 79.7181 29.1719 78.4845 29.1719C72.7286 29.1719 68.0626 33.838 68.0626 39.5938C68.0626 45.3497 72.7286 50.0158 78.4845 50.0158C79.7181 50.0158 80.9017 49.8015 82 49.408C79.558 51.7491 76.2439 53.1877 72.5939 53.1877C65.0862 53.1877 59 47.1015 59 39.5939C59 32.0862 65.0862 26 72.5939 26C76.2439 26 79.558 27.4386 82 29.7797Z" fill="#FEDC7A"/>
<path d="M20.3334 63.9637C20.3334 59.4552 23.9883 55.8004 28.4967 55.8004H75.5067C80.0151 55.8004 83.6699 59.4552 83.6699 63.9637V63.9637C83.6699 68.4721 80.0151 72.1269 75.5067 72.1269H28.4967C23.9883 72.1269 20.3334 68.4721 20.3334 63.9637V63.9637Z" fill="white"/>
<path d="M40.3345 60.6986C40.3345 67.0104 35.1109 72.1272 28.6673 72.1272C22.2236 72.1272 17 67.0104 17 60.6986C17 54.3868 22.2236 49.27 28.6673 49.27C35.1109 49.27 40.3345 54.3868 40.3345 60.6986Z" fill="white"/>
<path d="M57.0019 46.8211C57.0019 55.3872 49.9128 62.3313 41.1678 62.3313C32.4229 62.3313 25.3337 55.3872 25.3337 46.8211C25.3337 38.2551 32.4229 31.3109 41.1678 31.3109C49.9128 31.3109 57.0019 38.2551 57.0019 46.8211Z" fill="white"/>
<path d="M75.3362 53.3517C75.3362 60.1144 69.7395 65.5966 62.8356 65.5966C55.9317 65.5966 50.335 60.1144 50.335 53.3517C50.335 46.589 55.9317 41.1068 62.8356 41.1068C69.7395 41.1068 75.3362 46.589 75.3362 53.3517Z" fill="white"/>
</svg>
