<svg width="100" height="100" viewBox="0 0 100 100" fill="none" xmlns="http://www.w3.org/2000/svg">
<path fill-rule="evenodd" clip-rule="evenodd" d="M57.3593 37.0892C55.1947 28.9761 47.7952 23 39 23C28.5066 23 20 31.5066 20 42C20 43.1917 20.1097 44.3578 20.3196 45.4888C14.3731 47.1048 10 52.5417 10 59C10 66.732 16.268 73 24 73H80C85.5229 73 90 68.5228 90 63C90 57.4772 85.5229 53 80 53H79.6999C79.8967 52.0307 80 51.0274 80 50C80 41.7157 73.2843 35 65 35C62.2096 35 59.5971 35.762 57.3593 37.0892Z" fill="white"/>
</svg>
