<svg width="100" height="100" viewBox="0 0 100 100" fill="none" xmlns="http://www.w3.org/2000/svg">
<path d="M36.1667 53.3333C36.1667 49.4213 39.338 46.25 43.25 46.25H82.9167C86.8287 46.25 90 49.4213 90 53.3333V53.3333C90 57.2453 86.8287 60.4167 82.9167 60.4167H43.25C39.338 60.4167 36.1667 57.2453 36.1667 53.3333V53.3333Z" fill="#BAD7FF"/>
<path d="M53.1666 50.5C53.1666 55.9768 48.7268 60.4166 43.25 60.4166C37.7732 60.4166 33.3333 55.9768 33.3333 50.5C33.3333 45.0232 37.7732 40.5833 43.25 40.5833C48.7268 40.5833 53.1666 45.0232 53.1666 50.5Z" fill="#BAD7FF"/>
<path d="M67.3334 38.4583C67.3334 45.8912 61.3079 51.9167 53.875 51.9167C46.4422 51.9167 40.4167 45.8912 40.4167 38.4583C40.4167 31.0255 46.4422 25 53.875 25C61.3079 25 67.3334 31.0255 67.3334 38.4583Z" fill="#BAD7FF"/>
<path d="M82.9167 44.1249C82.9167 49.993 78.1597 54.7499 72.2917 54.7499C66.4237 54.7499 61.6667 49.993 61.6667 44.1249C61.6667 38.2569 66.4237 33.4999 72.2917 33.4999C78.1597 33.4999 82.9167 38.2569 82.9167 44.1249Z" fill="#BAD7FF"/>
<path d="M13.3333 64.1667C13.3333 59.5643 17.0643 55.8334 21.6666 55.8334H68.3333C72.9357 55.8334 76.6666 59.5643 76.6666 64.1667V64.1667C76.6666 68.7691 72.9357 72.5 68.3333 72.5H21.6666C17.0643 72.5 13.3333 68.7691 13.3333 64.1667V64.1667Z" fill="white"/>
<path d="M33.3333 60.8334C33.3333 67.2767 28.11 72.5001 21.6667 72.5001C15.2233 72.5001 10 67.2767 10 60.8334C10 54.3901 15.2233 49.1667 21.6667 49.1667C28.11 49.1667 33.3333 54.3901 33.3333 60.8334Z" fill="white"/>
<path d="M50 46.6667C50 55.4112 42.9112 62.5 34.1666 62.5C25.4221 62.5 18.3333 55.4112 18.3333 46.6667C18.3333 37.9222 25.4221 30.8334 34.1666 30.8334C42.9112 30.8334 50 37.9222 50 46.6667Z" fill="white"/>
<path d="M68.3333 53.3334C68.3333 60.2369 62.7369 65.8334 55.8333 65.8334C48.9298 65.8334 43.3333 60.2369 43.3333 53.3334C43.3333 46.4298 48.9298 40.8334 55.8333 40.8334C62.7369 40.8334 68.3333 46.4298 68.3333 53.3334Z" fill="white"/>
</svg>
