<svg width="100" height="100" viewBox="0 0 100 100" fill="none" xmlns="http://www.w3.org/2000/svg">
<path d="M20.3335 57.6559C20.3335 53.1471 23.9886 49.4919 28.4975 49.4919H75.506C80.0149 49.4919 83.67 53.1471 83.67 57.6559V57.6559C83.67 62.1648 80.0148 65.8199 75.506 65.8199H28.4975C23.9886 65.8199 20.3335 62.1648 20.3335 57.6559V57.6559Z" fill="white"/>
<path d="M40.3345 54.3904C40.3345 60.7028 35.1109 65.82 28.6672 65.82C22.2236 65.82 17 60.7028 17 54.3904C17 48.078 22.2236 42.9608 28.6672 42.9608C35.1109 42.9608 40.3345 48.078 40.3345 54.3904Z" fill="white"/>
<path d="M57.002 40.5116C57.002 49.0784 49.9128 56.0232 41.1679 56.0232C32.4229 56.0232 25.3337 49.0784 25.3337 40.5116C25.3337 31.9448 32.4229 25 41.1679 25C49.9128 25 57.002 31.9448 57.002 40.5116Z" fill="white"/>
<path d="M75.3363 47.0428C75.3363 53.806 69.7396 59.2888 62.8356 59.2888C55.9317 59.2888 50.335 53.806 50.335 47.0428C50.335 40.2795 55.9317 34.7968 62.8356 34.7968C69.7396 34.7968 75.3363 40.2795 75.3363 47.0428Z" fill="white"/>
<path d="M54.5217 69H45.8261L42 82.3562H47.2174L44.087 94L58 76.1918H51.0435L54.5217 69Z" fill="#FEDC7A"/>
<path d="M36.3432 80.5707C34.8464 82.9546 31.7005 83.6738 29.3165 82.177C26.9326 80.6803 26.2134 77.5343 27.7102 75.1503C29.2069 72.7664 32.5885 72.277 37.1285 69.7004C37.9593 73.3349 37.84 78.1867 36.3432 80.5707Z" fill="#BAD7FF"/>
<path d="M70.3432 80.5707C68.8464 82.9546 65.7005 83.6738 63.3165 82.177C60.9326 80.6803 60.2134 77.5343 61.7102 75.1503C63.2069 72.7664 66.5885 72.277 71.1285 69.7004C71.9593 73.3349 71.84 78.1867 70.3432 80.5707Z" fill="#BAD7FF"/>
</svg>
