<svg width="100" height="100" viewBox="0 0 100 100" fill="none" xmlns="http://www.w3.org/2000/svg">
<path d="M20.3335 57.6559C20.3335 53.1471 23.9886 49.4919 28.4975 49.4919H75.506C80.0149 49.4919 83.67 53.1471 83.67 57.6559V57.6559C83.67 62.1648 80.0148 65.8199 75.506 65.8199H28.4975C23.9886 65.8199 20.3335 62.1648 20.3335 57.6559V57.6559Z" fill="white"/>
<path d="M40.3345 54.3904C40.3345 60.7028 35.1109 65.82 28.6672 65.82C22.2236 65.82 17 60.7028 17 54.3904C17 48.078 22.2236 42.9608 28.6672 42.9608C35.1109 42.9608 40.3345 48.078 40.3345 54.3904Z" fill="white"/>
<path d="M57.002 40.5116C57.002 49.0784 49.9128 56.0232 41.1679 56.0232C32.4229 56.0232 25.3337 49.0784 25.3337 40.5116C25.3337 31.9448 32.4229 25 41.1679 25C49.9128 25 57.002 31.9448 57.002 40.5116Z" fill="white"/>
<path d="M75.3363 47.0428C75.3363 53.806 69.7396 59.2888 62.8356 59.2888C55.9317 59.2888 50.335 53.806 50.335 47.0428C50.335 40.2795 55.9317 34.7968 62.8356 34.7968C69.7396 34.7968 75.3363 40.2795 75.3363 47.0428Z" fill="white"/>
<path d="M35 73C35 74.6569 33.6569 76 32 76C30.3431 76 29 74.6569 29 73C29 71.3431 30.3431 70 32 70C33.6569 70 35 71.3431 35 73Z" fill="white"/>
<path d="M44 82C44 83.6569 42.6569 85 41 85C39.3431 85 38 83.6569 38 82C38 80.3431 39.3431 79 41 79C42.6569 79 44 80.3431 44 82Z" fill="white"/>
<path d="M62 82C62 83.6569 60.6569 85 59 85C57.3431 85 56 83.6569 56 82C56 80.3431 57.3431 79 59 79C60.6569 79 62 80.3431 62 82Z" fill="white"/>
<path d="M53 73C53 74.6569 51.6569 76 50 76C48.3431 76 47 74.6569 47 73C47 71.3431 48.3431 70 50 70C51.6569 70 53 71.3431 53 73Z" fill="white"/>
<path d="M71 73C71 74.6569 69.6569 76 68 76C66.3431 76 65 74.6569 65 73C65 71.3431 66.3431 70 68 70C69.6569 70 71 71.3431 71 73Z" fill="white"/>
</svg>
