<svg width="100" height="100" viewBox="0 0 100 100" fill="none" xmlns="http://www.w3.org/2000/svg">
<path d="M34 28.5C34 27.6716 34.6716 27 35.5 27H68.5C69.3284 27 70 27.6716 70 28.5V28.5C70 29.3284 69.3284 30 68.5 30H35.5C34.6716 30 34 29.3284 34 28.5V28.5Z" fill="#BAD7FF"/>
<path d="M59 39.5C59 38.6716 59.6716 38 60.5 38H78.5C79.3284 38 80 38.6716 80 39.5V39.5C80 40.3284 79.3284 41 78.5 41H60.5C59.6716 41 59 40.3284 59 39.5V39.5Z" fill="#BAD7FF"/>
<path d="M66 55.5C66 54.6716 66.6716 54 67.5 54H88.5C89.3284 54 90 54.6716 90 55.5V55.5C90 56.3284 89.3284 57 88.5 57H67.5C66.6716 57 66 56.3284 66 55.5V55.5Z" fill="#BAD7FF"/>
<path d="M66 70.5C66 69.6716 66.6716 69 67.5 69H88.5C89.3284 69 90 69.6716 90 70.5V70.5C90 71.3284 89.3284 72 88.5 72H67.5C66.6716 72 66 71.3284 66 70.5V70.5Z" fill="#BAD7FF"/>
<path d="M72 28.5C72 27.6716 72.6716 27 73.5 27H88.5C89.3284 27 90 27.6716 90 28.5V28.5C90 29.3284 89.3284 30 88.5 30H73.5C72.6716 30 72 29.3284 72 28.5V28.5Z" fill="#BAD7FF"/>
<path d="M82 39.5C82 38.6716 82.6716 38 83.5 38H88.5C89.3284 38 90 38.6716 90 39.5V39.5C90 40.3284 89.3284 41 88.5 41H83.5C82.6716 41 82 40.3284 82 39.5V39.5Z" fill="#BAD7FF"/>
<path d="M13.65 63.3751C13.65 58.3355 17.7354 54.2501 22.775 54.2501H73.875C78.9146 54.2501 83 58.3355 83 63.3751V63.3751C83 68.4147 78.9146 72.5001 73.875 72.5001H22.775C17.7354 72.5001 13.65 68.4147 13.65 63.3751V63.3751Z" fill="white"/>
<path d="M35.55 59.7251C35.55 66.7805 29.8304 72.5001 22.775 72.5001C15.7196 72.5001 10 66.7805 10 59.7251C10 52.6696 15.7196 46.9501 22.775 46.9501C29.8304 46.9501 35.55 52.6696 35.55 59.7251Z" fill="white"/>
<path d="M53.8 44.2126C53.8 53.7879 46.0377 61.5501 36.4625 61.5501C26.8873 61.5501 19.125 53.7879 19.125 44.2126C19.125 34.6374 26.8873 26.8751 36.4625 26.8751C46.0377 26.8751 53.8 34.6374 53.8 44.2126Z" fill="white"/>
<path d="M73.875 51.5126C73.875 59.072 67.7469 65.2001 60.1875 65.2001C52.6281 65.2001 46.5 59.072 46.5 51.5126C46.5 43.9532 52.6281 37.8251 60.1875 37.8251C67.7469 37.8251 73.875 43.9532 73.875 51.5126Z" fill="white"/>
</svg>
