<svg width="34" height="34" viewBox="0 0 34 34" fill="none" xmlns="http://www.w3.org/2000/svg">
<path d="M5.112 11.408H3V21.136H4.28C6.424 21.136 8.792 21.008 11.24 20.496L11.032 18.768C8.968 19.168 6.968 19.328 5.112 19.376V11.408ZM16.152 15.568H14.088V10H11.976V24.72H14.088V17.312H16.152V15.568Z" fill="#FC782D"/>
<path d="M18.2948 10.384V16.096H23.5268V10.384H21.5588V11.632H20.2948V10.384H18.2948ZM20.2948 13.232H21.5588V14.416H20.2948V13.232ZM24.3428 10.384V16.096H29.5428V10.384H27.5588V11.632H26.3108V10.384H24.3428ZM26.3108 13.232H27.5588V14.416H26.3108V13.232ZM17.2708 17.056V18.736H30.5828V17.056H17.2708ZM18.8228 19.76V24.576H28.9988V19.76H18.8228ZM26.9188 21.408V22.928H20.8868V21.408H26.9188Z" fill="#FC782D"/>
</svg>
