<svg width="34" height="34" viewBox="0 0 34 34" fill="none" xmlns="http://www.w3.org/2000/svg">
<path d="M4.18524 14.856C7.01724 14.664 8.85724 13.768 9.62524 12.488C10.3932 13.768 12.2492 14.664 15.0812 14.856L15.7372 13.288C13.0812 13.128 11.6412 12.408 11.2092 11.608H15.0972V10.008H4.18524V11.608H8.04124C7.60924 12.408 6.16924 13.128 3.52924 13.288L4.18524 14.856ZM9.59324 23.032C8.05724 23.032 7.28924 22.872 7.28924 22.488C7.28924 22.088 8.05724 21.928 9.59324 21.928C11.1452 21.928 11.9292 22.088 11.9292 22.488C11.9292 22.872 11.1452 23.032 9.59324 23.032ZM9.59324 20.536C6.76124 20.536 5.11324 21.224 5.11324 22.488C5.11324 23.752 6.76124 24.424 9.59324 24.424C12.4572 24.424 14.1052 23.752 14.1052 22.488C14.1052 21.224 12.4572 20.536 9.59324 20.536ZM10.6652 17.496H8.55324V18.536H4.16924V20.104H15.0652V18.536H10.6652V17.496ZM10.6652 15.384V14.04H8.55324V15.384H2.96924V17.032H16.3292V15.384H10.6652Z" fill="#03A4FF"/>
<path d="M24.344 9.928C21.096 9.928 19.016 11.016 19.016 12.792C19.016 14.584 21.096 15.656 24.344 15.656C27.592 15.656 29.688 14.584 29.688 12.792C29.688 11.016 27.592 9.928 24.344 9.928ZM24.344 11.544C26.36 11.544 27.512 11.96 27.512 12.792C27.512 13.624 26.36 14.04 24.344 14.04C22.344 14.04 21.192 13.624 21.192 12.792C21.192 11.96 22.344 11.544 24.344 11.544ZM19.24 19.208V24.2H29.416V19.208H19.24ZM27.336 20.856V22.552H21.304V20.856H27.336ZM17.688 16.504V18.168H31V16.504H17.688Z" fill="#03A4FF"/>
</svg>
