<svg width="34" height="34" viewBox="0 0 34 34" fill="none" xmlns="http://www.w3.org/2000/svg">
<path d="M17 30.4583C13.8597 30.4583 11.186 29.3666 8.97883 27.183C6.77072 24.9985 5.66667 22.3597 5.66667 19.2667C5.66667 17.7083 5.95614 16.2619 6.53508 14.9274C7.11308 13.5939 7.93333 12.4194 8.99583 11.4042L17 3.54167L25.0042 11.4042C26.0667 12.4194 26.8874 13.5939 27.4663 14.9274C28.0443 16.2619 28.3333 17.7083 28.3333 19.2667C28.3333 22.3597 27.2298 24.9985 25.0226 27.183C22.8145 29.3666 20.1403 30.4583 17 30.4583ZM8.53542 18.4167H25.4646C25.3701 17.4486 25.1166 16.5514 24.7038 15.725C24.2902 14.8986 23.7292 14.1431 23.0208 13.4583L17 7.50833L10.9792 13.4583C10.2708 14.1431 9.70983 14.8986 9.29617 15.725C8.88345 16.5514 8.62986 17.4486 8.53542 18.4167Z" fill="white"/>
</svg>
