<svg width="34" height="34" viewBox="0 0 34 34" fill="none" xmlns="http://www.w3.org/2000/svg">
<path d="M6.47325 14.504H12.7773V16.568H6.47325V14.504ZM10.6813 20.952V18.248H14.8573V10.552H12.7773V12.84H6.47325V10.552H4.37725V18.248H8.56925V20.952H2.96925V22.664H16.3133V20.952H10.6813Z" fill="#00E117"/>
<path d="M24.312 22.84C22.28 22.84 21.336 22.568 21.336 21.96C21.336 21.352 22.28 21.096 24.312 21.096C26.36 21.096 27.304 21.352 27.304 21.96C27.304 22.568 26.36 22.84 24.312 22.84ZM24.312 19.544C21.08 19.544 19.208 20.376 19.208 21.96C19.208 23.528 21.08 24.376 24.312 24.376C27.56 24.376 29.432 23.528 29.432 21.96C29.432 20.376 27.56 19.544 24.312 19.544ZM25.384 17.24V16.328H29.592V14.728H21.432V13.928H29.144V12.392H21.432V11.624H29.48V10.024H19.336V16.328H23.272V17.24H17.672V18.888H31V17.24H25.384Z" fill="#00E117"/>
</svg>
