<svg width="34" height="34" viewBox="0 0 34 34" fill="none" xmlns="http://www.w3.org/2000/svg">
<path d="M12.75 17C13.5008 17.1983 13.9542 17.9775 13.7558 18.7283L11.9142 25.5708C11.7158 26.3358 10.9367 26.775 10.1858 26.5767C10.0057 26.5315 9.83659 26.4503 9.68883 26.3377C9.54107 26.2252 9.41772 26.0839 9.3263 25.9222C9.23487 25.7606 9.17727 25.582 9.15699 25.3974C9.13671 25.2128 9.15418 25.026 9.20833 24.8483L11.0217 18.0058C11.22 17.2408 11.9992 16.8017 12.75 17M18.4167 17C19.1675 17.1983 19.6208 17.9775 19.4225 18.7283L16.49 29.6792C16.2917 30.4583 15.5125 30.8833 14.7475 30.685C13.9967 30.4583 13.5433 29.7075 13.7417 28.9425L16.6883 18.0058C16.8867 17.2408 17.6658 16.8017 18.4167 17ZM24.0833 17C24.8342 17.1983 25.2875 17.9775 25.0892 18.7283L23.2475 25.5708C23.0492 26.3358 22.27 26.775 21.5192 26.5767C21.339 26.5315 21.1699 26.4503 21.0222 26.3377C20.8744 26.2252 20.7511 26.0839 20.6596 25.9222C20.5682 25.7606 20.5106 25.582 20.4903 25.3974C20.47 25.2128 20.4875 25.026 20.5417 24.8483L22.355 18.0058C22.5533 17.2408 23.3325 16.8017 24.0833 17M24.0833 14.1667V12.75C24.0833 10.8714 23.3371 9.06971 22.0087 7.74133C20.6803 6.41295 18.8786 5.66667 17 5.66667C13.4583 5.66667 10.5542 8.245 10.0017 11.6025C9.53417 11.4325 9.02417 11.3333 8.5 11.3333C7.37283 11.3333 6.29183 11.7811 5.4948 12.5781C4.69777 13.3752 4.25 14.4562 4.25 15.5833C4.25 17.1558 5.1 18.53 6.375 19.2667V19.2525C7.08333 19.6492 7.28167 20.5417 6.89917 21.1933C6.5025 21.8592 5.66667 22.1 4.95833 21.7033V21.7175C3.87962 21.098 2.98386 20.2044 2.36188 19.1271C1.7399 18.0498 1.41381 16.8273 1.41667 15.5833C1.41667 13.7047 2.16295 11.903 3.49133 10.5747C4.81971 9.24628 6.62138 8.5 8.5 8.5C9.91667 5.17084 13.175 2.83334 17 2.83334C21.8592 2.83334 25.84 6.60167 26.2083 11.3758L26.9167 11.3333C28.4196 11.3333 29.8609 11.9304 30.9236 12.9931C31.9863 14.0558 32.5833 15.4971 32.5833 17C32.5833 19.125 31.45 20.9242 29.75 21.9017C29.0417 22.2842 28.2058 22.0575 27.8092 21.3775C27.4267 20.6975 27.625 19.8333 28.3333 19.4367V19.4508C29.1833 18.9692 29.75 18.0483 29.75 17C29.75 16.2486 29.4515 15.5279 28.9201 14.9965C28.3888 14.4652 27.6681 14.1667 26.9167 14.1667H24.0833V14.1667Z" fill="white"/>
</svg>
