<svg width="34" height="34" viewBox="0 0 34 34" fill="none" xmlns="http://www.w3.org/2000/svg">
<path d="M8.476 7.388H9.892V12.068H8.476V7.388ZM7 13.304H11.356V6.14H7V13.304ZM14.668 5V9.224H13.744V5.18H12.268V15.56H13.744V10.496H14.668V16.052H16.168V5H14.668Z" fill="#FF0F00"/>
<path d="M22.7071 6.644C24.1471 6.644 25.0711 7.076 25.0711 7.868C25.0711 8.672 24.1471 9.104 22.7071 9.104C21.2551 9.104 20.3311 8.672 20.3311 7.868C20.3311 7.076 21.2551 6.644 22.7071 6.644ZM22.7071 10.364C25.0591 10.364 26.7031 9.392 26.7031 7.868C26.7031 6.368 25.0591 5.384 22.7071 5.384C20.3431 5.384 18.7111 6.368 18.7111 7.868C18.7111 9.392 20.3431 10.364 22.7071 10.364ZM27.7351 11.192H17.7271V12.464H21.9031V16.076H23.4871V12.464H27.7351V11.192Z" fill="#FF0F00"/>
<path d="M8.608 18.056H7.024V25.352H7.984C9.592 25.352 11.368 25.256 13.204 24.872L13.048 23.576C11.5 23.876 10 23.996 8.608 24.032V18.056ZM16.888 21.176H15.34V17H13.756V28.04H15.34V22.484H16.888V21.176Z" fill="#FF0F00"/>
<path d="M18.4951 17.288V21.572H22.4191V17.288H20.9431V18.224H19.9951V17.288H18.4951ZM19.9951 19.424H20.9431V20.312H19.9951V19.424ZM23.0311 17.288V21.572H26.9311V17.288H25.4431V18.224H24.5071V17.288H23.0311ZM24.5071 19.424H25.4431V20.312H24.5071V19.424ZM17.7271 22.292V23.552H27.7111V22.292H17.7271ZM18.8911 24.32V27.932H26.5231V24.32H18.8911ZM24.9631 25.556V26.696H20.4391V25.556H24.9631Z" fill="#FF0F00"/>
</svg>
