<svg width="34" height="34" viewBox="0 0 34 34" fill="none" xmlns="http://www.w3.org/2000/svg">
<path d="M24.4375 24.4375C24.4364 25.434 24.0852 26.3984 23.4453 27.1622C22.8053 27.926 21.9173 28.4407 20.9365 28.6163C19.9556 28.7919 18.9442 28.6173 18.079 28.1229C17.2139 27.6285 16.5499 26.8459 16.2031 25.9117C16.1462 25.7791 16.1168 25.6362 16.1169 25.4918C16.117 25.3474 16.1465 25.2046 16.2037 25.072C16.2608 24.9394 16.3444 24.8199 16.4492 24.7207C16.5541 24.6214 16.6781 24.5446 16.8136 24.4949C16.9492 24.4452 17.0935 24.4237 17.2376 24.4316C17.3818 24.4395 17.5228 24.4767 17.6521 24.5409C17.7814 24.6052 17.8962 24.6951 17.9896 24.8052C18.083 24.9152 18.153 25.0432 18.1953 25.1813C18.3311 25.5446 18.5637 25.8639 18.868 26.1045C19.1723 26.3451 19.5367 26.4977 19.9216 26.546C20.3065 26.5943 20.6973 26.5362 21.0515 26.3782C21.4058 26.2202 21.7101 25.9682 21.9313 25.6496C22.1526 25.331 22.2824 24.9579 22.3067 24.5707C22.331 24.1836 22.2489 23.7971 22.0693 23.4533C21.8896 23.1095 21.6193 22.8215 21.2876 22.6204C20.9558 22.4193 20.5754 22.3128 20.1875 22.3125H5.3125C5.03071 22.3125 4.76046 22.2006 4.5612 22.0013C4.36194 21.802 4.25 21.5318 4.25 21.25C4.25 20.9682 4.36194 20.698 4.5612 20.4987C4.76046 20.2994 5.03071 20.1875 5.3125 20.1875H20.1875C21.3136 20.191 22.3926 20.6399 23.1888 21.4362C23.9851 22.2324 24.434 23.3114 24.4375 24.4375V24.4375ZM15.9375 13.8125C16.7141 13.8128 17.476 13.6003 18.1404 13.1981C18.8047 12.7959 19.3462 12.2193 19.7059 11.531C20.0656 10.8427 20.2298 10.0689 20.1807 9.29385C20.1317 8.51877 19.8711 7.77196 19.4274 7.13453C18.9838 6.4971 18.3739 5.99344 17.6641 5.67825C16.9543 5.36305 16.1717 5.24838 15.4013 5.34669C14.6309 5.44499 13.9022 5.75251 13.2943 6.23585C12.6864 6.71919 12.2225 7.35987 11.9531 8.08828C11.8962 8.22094 11.8668 8.36382 11.8669 8.50819C11.867 8.65256 11.8965 8.7954 11.9537 8.92799C12.0108 9.06057 12.0944 9.18013 12.1992 9.27935C12.3041 9.37856 12.4281 9.45537 12.5636 9.50507C12.6992 9.55477 12.8435 9.57632 12.9876 9.56842C13.1318 9.56051 13.2728 9.52331 13.4021 9.45908C13.5314 9.39485 13.6462 9.30495 13.7396 9.19486C13.833 9.08476 13.903 8.95679 13.9453 8.81875C14.0811 8.45537 14.3137 8.13609 14.618 7.89552C14.9223 7.65494 15.2867 7.50226 15.6716 7.45401C16.0565 7.40575 16.4473 7.46378 16.8015 7.6218C17.1558 7.77982 17.4601 8.03179 17.6813 8.35041C17.9026 8.66903 18.0324 9.04214 18.0567 9.42929C18.081 9.81644 17.9989 10.2029 17.8193 10.5467C17.6396 10.8905 17.3693 11.1785 17.0376 11.3796C16.7058 11.5807 16.3254 11.6872 15.9375 11.6875H3.1875C2.90571 11.6875 2.63546 11.7994 2.4362 11.9987C2.23694 12.198 2.125 12.4682 2.125 12.75C2.125 13.0318 2.23694 13.302 2.4362 13.5013C2.63546 13.7006 2.90571 13.8125 3.1875 13.8125H15.9375ZM27.625 9.5625C26.7573 9.56474 25.9109 9.83169 25.199 10.3277C24.487 10.8237 23.9434 11.5251 23.6406 12.3383C23.5837 12.4709 23.5543 12.6138 23.5544 12.7582C23.5545 12.9026 23.584 13.0454 23.6412 13.178C23.6983 13.3106 23.7819 13.4301 23.8867 13.5293C23.9916 13.6286 24.1156 13.7054 24.2511 13.7551C24.3867 13.8048 24.531 13.8263 24.6751 13.8184C24.8193 13.8105 24.9603 13.7733 25.0896 13.7091C25.2189 13.6449 25.3337 13.555 25.4271 13.4449C25.5205 13.3348 25.5905 13.2068 25.6328 13.0688C25.7686 12.7054 26.0012 12.3861 26.3055 12.1455C26.6098 11.9049 26.9742 11.7523 27.3591 11.704C27.744 11.6558 28.1348 11.7138 28.489 11.8718C28.8433 12.0298 29.1476 12.2818 29.3688 12.6004C29.5901 12.919 29.7199 13.2921 29.7442 13.6793C29.7685 14.0664 29.6864 14.4529 29.5068 14.7967C29.3271 15.1405 29.0568 15.4285 28.7251 15.6296C28.3933 15.8307 28.0129 15.9372 27.625 15.9375H4.25C3.96821 15.9375 3.69796 16.0494 3.4987 16.2487C3.29944 16.448 3.1875 16.7182 3.1875 17C3.1875 17.2818 3.29944 17.552 3.4987 17.7513C3.69796 17.9506 3.96821 18.0625 4.25 18.0625H27.625C28.7522 18.0625 29.8332 17.6147 30.6302 16.8177C31.4272 16.0207 31.875 14.9397 31.875 13.8125C31.875 12.6853 31.4272 11.6043 30.6302 10.8073C29.8332 10.0103 28.7522 9.5625 27.625 9.5625V9.5625Z" fill="white"/>
</svg>
